{"title":"The Cobbler 2014 HDRip x264 6CH AC3 PLAYNOW","uid":11751425,"size":1562698582,"categoryP":"video","categoryS":"hd___movies","magnet":"?xt=urn:btih:7d6a4f524d9c3d95de3caabbc58de0bf3c301ee9&amp;dn=The+Cobbler+2014+HDRip+x264+6CH+AC3+PLAYNOW&amp;tr=udp%3A%2F%2Ftracker.openbittorrent.com%3A80&amp;tr=udp%3A%2F%2Fopen.demonii.com%3A1337&amp;tr=udp%3A%2F%2Ftracker.coppersurfer.tk%3A6969&amp;tr=udp%3A%2F%2Fexodus.desync.com%3A6969","seeders":6,"leechers":4,"uploader":"shawnmurthy","files":1,"time":1426232612,"description":"SCREENSHOTS GO HERE...http://pimp4003DOTnet/torrents.php?id=7d6a4f524d9c3d95de3caabbc58de0bf3c301ee9\n\nI am looking for: Pre-Retail Supplier Unreleased DVD/BluRay/Web-Dls/R5/CAM/TS If you have something to offer, please contact ME: &lt;a class=&quot;__cf_email__&quot; href=&quot;/cdn-cgi/l/email-protection&quot; data-cfemail=&quot;e7978e8a97d3d7d7d4a78f92948f8a868e8bc984888ac9&quot;&gt;[email&amp;#160;protected]&lt;/a&gt;&lt;script cf-hash='f9e31' type=&quot;text/javascript&quot;&gt;\n/* &lt;![CDATA[ */!function(){try{var t=&quot;currentScript&quot;in document?document.currentScript:function(){for(var t=document.getElementsByTagName(&quot;script&quot;),e=t.length;e--;)if(t[e].getAttribute(&quot;cf-hash&quot;))return t[e]}();if(t&amp;&amp;t.previousSibling){var e,r,n,i,c=t.previousSibling,a=c.getAttribute(&quot;data-cfemail&quot;);if(a){for(e=&quot;&quot;,r=parseInt(a.substr(0,2),16),n=2;a.length-n;n+=2)i=parseInt(a.substr(n,2),16)^r,e+=String.fromCharCode(i);e=document.createTextNode(e),c.parentNode.replaceChild(e,c)}}}catch(u){}}();/* ]]&gt; */&lt;/script&gt; WE CAN WORK OUT A GREAT DEAL THAT WORKS OUT FOR EVERY PARTY.\n &lt;a href=&quot;\nhttp://i.imgur.com/J3ny9bJ.jpg&quot; rel=&quot;nofollow&quot; target=&quot;_NEW&quot;&gt;\nhttp://i.imgur.com/J3ny9bJ.jpg&lt;/a&gt;\n &lt;a href=&quot;\nhttp://i.imgur.com/SpsuXOR.png&quot; rel=&quot;nofollow&quot; target=&quot;_NEW&quot;&gt;\nhttp://i.imgur.com/SpsuXOR.png&lt;/a&gt;\n\nPIMP THE ONE AND ONLY PIMPSTER.....PRESENTS\n\nfacebookDOTcom/OfficialPimp4003\n &lt;a href=&quot;\nhttp://i.imgur.com/4qhCS0k.jpg&quot; rel=&quot;nofollow&quot; target=&quot;_NEW&quot;&gt;\nhttp://i.imgur.com/4qhCS0k.jpg&lt;/a&gt;\n\nThe Cobbler 2014 HDRip x264 6CH AC3 PLAYNOW\n &lt;a href=&quot;\nhttp://www.imdb.com/title/tt3203616/&quot; rel=&quot;nofollow&quot; target=&quot;_NEW&quot;&gt;\nhttp://www.imdb.com/title/tt3203616/&lt;/a&gt;\n\nMax Simkin repairs shoes in the same New York shop that has been in his family for generations. Disenchanted with the grind of daily life, Max stumbles upon a magical heirloom that allows ... See full summary Â»\n\nDirector: Thomas McCarthy\n\nWriters: Thomas McCarthy, Paul Sado\n\nStars: Dan Stevens, Adam Sandler, Steve Buscemi |See full cast and crew Â»\n\nVideo\n\nID : 1\n\nFormat : AVC\n\nFormat/Info : Advanced Video Codec\n\nFormat profile : &lt;a class=&quot;__cf_email__&quot; href=&quot;/cdn-cgi/l/email-protection&quot; data-cfemail=&quot;4f072628270f037b617e&quot;&gt;[email&amp;#160;protected]&lt;/a&gt;&lt;script cf-hash='f9e31' type=&quot;text/javascript&quot;&gt;\n/* &lt;![CDATA[ */!function(){try{var t=&quot;currentScript&quot;in document?document.currentScript:function(){for(var t=document.getElementsByTagName(&quot;script&quot;),e=t.length;e--;)if(t[e].getAttribute(&quot;cf-hash&quot;))return t[e]}();if(t&amp;&amp;t.previousSibling){var e,r,n,i,c=t.previousSibling,a=c.getAttribute(&quot;data-cfemail&quot;);if(a){for(e=&quot;&quot;,r=parseInt(a.substr(0,2),16),n=2;a.length-n;n+=2)i=parseInt(a.substr(n,2),16)^r,e+=String.fromCharCode(i);e=document.createTextNode(e),c.parentNode.replaceChild(e,c)}}}catch(u){}}();/* ]]&gt; */&lt;/script&gt;\n\nFormat settings, CABAC : Yes\n\nFormat settings, ReFrames : 5 frames\n\nCodec ID : V_MPEG4/ISO/AVC\n\nDuration : 1h 38mn\n\nBit rate : 1 745 Kbps\n\nWidth : 720 pixels\n\nHeight : 384 pixels\n\nDisplay aspect ratio : 1.85:1\n\nFrame rate mode : Constant\n\nFrame rate : 23.976 fps\n\nColor space : YUV\n\nChroma subsampling : 4:2:0\n\nBit depth : 8 bits\n\nScan type : Progressive\n\nBits/(Pixel*Frame) : 0.263\n\nStream size : 1.16 GiB (80%)\n\nWriting library : x264 core 142 r2431 ac76440\n\nEncoding settings : cabac=1 / ref=5 / deblock=1:0:0 / analyse=0x3:0x3 / me=dia / subme=1 / psy=1 / psy_rd=1.00:0.00 / mixed_ref=0 / me_range=16 / chroma_me=1 / trellis=0 / 8x8dct=1 / cqm=0 / deadzone=21,11 / fast_pskip=1 / chroma_qp_offset=0 / threads=48 / lookahead_threads=3 / sliced_threads=0 / nr=0 / decimate=1 / interlaced=0 / bluray_compat=0 / constrained_intra=0 / bframes=3 / b_pyramid=2 / b_adapt=1 / b_bias=0 / direct=1 / weightb=1 / open_gop=0 / weightp=1 / keyint=240 / keyint_min=23 / scenecut=40 / intra_refresh=0 / rc_lookahead=0 / rc=abr / mbtree=0 / bitrate=1745 / ratetol=1.0 / qcomp=0.60 / qpmin=0 / qpmax=69 / qpstep=4 / vbv_maxrate=62500 / vbv_bufsize=78125 / nal_hrd=none / filler=0 / ip_ratio=1.40 / pb_ratio=1.30 / aq=1:1.00\n\nDefault : Yes\n\nForced : No\n\nAudio\n\nID : 2\n\nFormat : AC-3\n\nFormat/Info : Audio Coding 3\n\nMode extension : CM (complete main)\n\nFormat settings, Endianness : Big\n\nCodec ID : A_AC3\n\nDuration : 1h 38mn\n\nBit rate mode : Constant\n\nBit rate : 384 Kbps\n\nChannel(s) : 6 channels\n\nChannel positions : Front: L C R, Side: L R, LFE\n\nSampling rate : 48.0 KHz\n\nBit depth : 16 bits\n\nCompression mode : Lossy\n\nStream size : 269 MiB (18%)\n\nLanguage : English\n\nDefault : Yes\n\nForced : No\n\nText\n\nID : 3\n\nFormat : UTF-8\n\nCodec ID : S_TEXT/UTF8\n\nCodec ID/Info : UTF-8 Plain Text\n\nLanguage : English\n\nDefault : No\n\nForced : No\n\nMenu\n\n00:00:00.000 : en:1\n\n00:08:30.000 : en:2\n\n00:16:08.000 : en:3\n\n00:23:34.000 : en:4\n\n00:39:05.000 : en:5\n\n00:46:02.000 : en:6\n\n00:52:00.000 : en:7\n\n01:00:35.000 : en:8\n\n01:08:49.000 : en:9\n\n01:15:41.000 : en:10\n\n01:26:43.000 : en:11\n\n01:33:18.000 : en:12","torrent":{"xt":"urn:btih:7d6a4f524d9c3d95de3caabbc58de0bf3c301ee9","amp;dn":"The+Cobbler+2014+HDRip+x264+6CH+AC3+PLAYNOW","amp;tr":["udp%3A%2F%2Ftracker.openbittorrent.com%3A80","udp%3A%2F%2Fopen.demonii.com%3A1337","udp%3A%2F%2Ftracker.coppersurfer.tk%3A6969","udp%3A%2F%2Fexodus.desync.com%3A6969"],"infoHash":"7d6a4f524d9c3d95de3caabbc58de0bf3c301ee9","infoHashBuffer":{"type":"Buffer","data":[125,106,79,82,77,156,61,149,222,60,170,187,197,141,224,191,60,48,30,233]},"announce":[],"urlList":[]}}